<?xml version="1.0" encoding="utf-8" ?>
<svg xmlns="http://www.w3.org/2000/svg" xmlns:xlink="http://www.w3.org/1999/xlink" width="264" height="265">
	<defs>
		<linearGradient id="gradient_0" gradientUnits="userSpaceOnUse" x1="161.49443" y1="29.690609" x2="97.425606" y2="218.86252">
			<stop offset="0" stop-color="#5481A5"/>
			<stop offset="1" stop-color="#68A0BA"/>
		</linearGradient>
	</defs>
	<path fill="url(#gradient_0)" d="M124.98 17.0616C138.337 14.5285 152.154 17.3612 163.437 24.9457C175.98 33.5121 184.334 47.5443 187.094 62.3412C188.557 70.1842 187.569 77.2587 186.869 85.0587C189.43 83.3478 193.054 80.8778 196.176 80.533C196.37 80.5999 196.744 80.658 196.829 80.8427C197.433 82.1421 197.514 99.9295 197.363 102.554C197.314 103.414 197.177 104.318 196.858 105.122C196.55 105.899 195.978 106.396 195.323 106.887C193.455 108.287 191.23 109.321 189.203 110.485C185.255 112.751 181.241 115.078 177.4 117.516C176.199 116.737 175.579 116.208 175.275 114.767C174.741 112.236 175.395 109.266 175.777 106.745C174.292 108.736 172.319 111.02 170.378 112.573C171.983 114.92 173.994 116.966 175.567 119.327C181.338 127.992 183.346 137.314 184.465 147.494C177.55 150.684 173.268 153.683 170.544 161.119C170.091 162.353 169.459 164.162 169.509 165.467C169.675 174.4 172.204 180.237 178.664 186.45C179.028 186.8 179.271 187.061 179.768 187.188L179.595 187.397C178.833 187.982 175.942 195.898 175.052 197.602C170.214 206.859 163.474 215.83 154.719 221.686C145.383 227.93 135.149 230.329 124.067 228.089C111.26 225.5 100.772 216.418 93.6908 205.711C84.2346 191.412 79.7152 174.552 79.3255 157.503C79.2476 154.095 79.0749 150.214 79.7555 146.877C80.4554 143.901 80.3785 140.689 81.0088 137.672C79.0152 136.705 76.768 136.202 74.7197 135.337C70.0524 133.368 66.2273 129.059 64.354 124.407C62.2309 119.135 61.9735 112.766 64.2424 107.485C65.3738 105.116 66.6247 103.154 68.4266 101.226C73.2359 96.0814 78.349 94.9809 85.1408 94.7327C83.0245 90.4334 81.9032 86.0331 81.1831 81.3003C78.9199 66.4267 82.0969 50.3246 91.106 38.1045C99.3335 26.9447 111.204 19.1175 124.98 17.0616Z"/>
	<defs>
		<linearGradient id="gradient_1" gradientUnits="userSpaceOnUse" x1="116.48296" y1="88.839951" x2="197.36356" y2="95.211441">
			<stop offset="0" stop-color="#6A9EB6"/>
			<stop offset="1" stop-color="#B5D4F0"/>
		</linearGradient>
	</defs>
	<path fill="url(#gradient_1)" d="M124.98 17.0616C138.337 14.5285 152.154 17.3612 163.437 24.9457C175.98 33.5121 184.334 47.5443 187.094 62.3412C188.557 70.1842 187.569 77.2587 186.869 85.0587C189.43 83.3478 193.054 80.8778 196.176 80.533C196.37 80.5999 196.744 80.658 196.829 80.8427C197.433 82.1421 197.514 99.9295 197.363 102.554C197.314 103.414 197.177 104.318 196.858 105.122C196.55 105.899 195.978 106.396 195.323 106.887C193.455 108.287 191.23 109.321 189.203 110.485C185.255 112.751 181.241 115.078 177.4 117.516C176.199 116.737 175.579 116.208 175.275 114.767C174.741 112.236 175.395 109.266 175.777 106.745C174.292 108.736 172.319 111.02 170.378 112.573C171.983 114.92 173.994 116.966 175.567 119.327C181.338 127.992 183.346 137.314 184.465 147.494C177.55 150.684 173.268 153.683 170.544 161.119C170.091 162.353 169.459 164.162 169.509 165.467L169.214 166.615C169.04 166.742 168.923 166.825 168.717 166.894C165.589 167.941 157.954 166.488 155.102 164.82C151.386 162.646 148.575 158.351 147.519 154.204C146.964 152.02 146.753 149.756 146.173 147.577C145.833 146.302 145.569 146.038 144.454 145.388L144.514 145.235L144.337 144.93C143.611 144.659 142.985 144.419 142.199 144.438C141.893 144.446 141.587 144.444 141.281 144.449C141.556 144.129 144.056 144.074 144.738 143.783L144.737 143.378C139.166 144.397 133.607 145.064 127.932 144.687C127.159 144.12 121.885 143.713 120.384 143.436C115.168 142.472 109.07 140.783 104.948 137.268C103.141 136.123 101.403 134.745 100.143 133.005L101.084 132.095C101.685 129.681 103.141 126.298 104.705 124.331C105.646 123.148 106.742 122.373 108.25 122.193C109.104 122.092 109.246 122.066 109.775 121.393L107.986 120.202C106.495 119.462 105.057 118.411 103.645 117.518L104.886 116.529L105.205 116.375C105.128 115.887 104.714 115.441 104.598 114.931C104.344 113.818 111.868 111.953 113.5 109.182C113.319 108.678 113.272 108.702 112.828 108.452C112.487 108.26 112.118 108.132 111.754 107.989C112.065 107.95 112.371 107.851 112.66 107.731C114.299 107.049 115.666 105.054 116.317 103.474C119.272 96.2943 117.278 86.797 114.389 79.9191C114.816 77.5372 114.175 75.3221 113.621 73.0271C112.861 69.8824 112.992 66.679 113.009 63.464C113.068 52.3583 114.53 41.5063 120.425 31.8389C122.796 28.4361 125.736 25.4654 128.091 22.0794C128.639 21.2911 129.601 20.032 129.424 19.0349C128.361 17.9778 126.4 17.5424 124.98 17.0616Z"/>
	<defs>
		<linearGradient id="gradient_2" gradientUnits="userSpaceOnUse" x1="129.88074" y1="122.261" x2="129.86826" y2="144.25021">
			<stop offset="0" stop-color="#1C5977"/>
			<stop offset="1" stop-color="#2E8491"/>
		</linearGradient>
	</defs>
	<path fill="url(#gradient_2)" d="M109.775 121.393C113.993 123.46 118.216 125.349 122.832 126.323C132.054 128.737 142.092 127.404 150.979 124.39C151.593 125.373 152.402 125.71 153.506 125.96C154.349 126.15 155.211 126.257 156.068 126.361C157.748 128.109 158.976 129.626 158.9 132.198C158.807 135.309 156.948 136.459 156.537 137.904C156.45 138.21 156.634 138.465 156.792 138.694C153.903 141.605 148.324 141.849 144.737 143.378C139.166 144.397 133.607 145.064 127.932 144.687C127.159 144.12 121.885 143.713 120.384 143.436C115.168 142.472 109.07 140.783 104.948 137.268C103.141 136.123 101.403 134.745 100.143 133.005L101.084 132.095C101.685 129.681 103.141 126.298 104.705 124.331C105.646 123.148 106.742 122.373 108.25 122.193C109.104 122.092 109.246 122.066 109.775 121.393Z"/>
	<path fill="#415D98" d="M100.143 133.005L101.084 132.095C101.867 133.477 104.681 135.892 104.962 136.528C105.033 136.69 105.041 136.99 104.992 137.159C104.981 137.197 104.963 137.232 104.948 137.268C103.141 136.123 101.403 134.745 100.143 133.005Z"/>
	<path fill="#689DB4" d="M114.389 79.9191C114.816 77.5372 114.175 75.3221 113.621 73.0271C112.861 69.8824 112.992 66.679 113.009 63.464C113.068 52.3583 114.53 41.5063 120.425 31.8389C121.138 32.4029 121.196 32.5818 121.29 33.4794C121.444 34.9398 121.075 36.7314 120.983 38.2087C120.847 40.4079 120.844 42.6288 120.872 44.8316L121.654 96.8531C121.837 104.536 122.859 112.244 122.5 119.945C122.421 121.636 122.192 122.438 121.501 123.992C121.191 124.689 121.699 125.421 122.224 125.861C122.419 126.024 122.626 126.174 122.832 126.323C118.216 125.349 113.993 123.46 109.775 121.393L107.986 120.202C106.495 119.462 105.057 118.411 103.645 117.518L104.886 116.529L105.205 116.375C105.128 115.887 104.714 115.441 104.598 114.931C104.344 113.818 111.868 111.953 113.5 109.182C113.319 108.678 113.272 108.702 112.828 108.452C112.487 108.26 112.118 108.132 111.754 107.989C112.065 107.95 112.371 107.851 112.66 107.731C114.299 107.049 115.666 105.054 116.317 103.474C119.272 96.2943 117.278 86.797 114.389 79.9191Z"/>
	<path fill="#5DACBB" d="M104.886 116.529L105.205 116.375C106.157 117.762 107.802 117.508 108.393 119.331C108.305 119.673 108.263 119.957 107.986 120.202C106.495 119.462 105.057 118.411 103.645 117.518L104.886 116.529Z"/>
	<path fill="#173467" d="M150.979 124.39C155.345 122.692 159.287 120.697 163.297 118.268C165.3 120.727 166.681 123.041 167.537 126.11C166.007 131.528 161.721 135.922 156.882 138.646C156.852 138.662 156.822 138.678 156.792 138.694C156.634 138.465 156.45 138.21 156.537 137.904C156.948 136.459 158.807 135.309 158.9 132.198C158.976 129.626 157.748 128.109 156.068 126.361C155.211 126.257 154.349 126.15 153.506 125.96C152.402 125.71 151.593 125.373 150.979 124.39Z"/>
	<path fill="#173467" d="M176.876 70.7965L179.376 68.9506C179.281 72.3269 179.228 75.7044 179.218 79.0821L179.486 80.6905C179.444 83.8835 179.362 87.0809 179.506 90.2722C178.338 91.0409 177.157 91.745 175.931 92.4187L175.438 94.7738C170.023 97.4244 165.091 101.212 159.686 103.976C159.591 96.1924 159.611 88.4081 159.747 80.6255C164.045 77.6414 168.842 75.1829 173.268 72.3359C174.252 71.506 175.646 71.0882 176.876 70.7965Z"/>
	<path fill="#415D98" d="M173.268 72.3359C174.252 71.506 175.646 71.0882 176.876 70.7965C176.23 72.5323 167.572 81.7732 165.783 82.4745C165.621 82.538 165.491 82.538 165.32 82.5385L165.072 82.226C165.593 79.6879 173.977 74.8509 173.268 72.3359Z"/>
	<path fill="#689DB4" d="M179.486 80.6905C179.469 80.683 179.453 80.6706 179.434 80.6679C178.056 80.47 175.089 84.9916 173.762 85.9988C173.306 86.3448 173.11 86.4772 172.531 86.4016L172.478 85.9738C173.578 84.0275 177.258 80.1469 179.218 79.0821L179.486 80.6905Z"/>
	<defs>
		<linearGradient id="gradient_3" gradientUnits="userSpaceOnUse" x1="94.082832" y1="89.82238" x2="114.23013" y2="80.761734">
			<stop offset="0" stop-color="#1D2F68"/>
			<stop offset="1" stop-color="#306E84"/>
		</linearGradient>
	</defs>
	<path fill="url(#gradient_3)" d="M94.9393 63.367L96.1058 63.067C98.1161 62.5496 100.712 63.6729 102.394 64.7074C107.906 68.0976 111.459 74.3252 114.389 79.9191C117.278 86.797 119.272 96.2943 116.317 103.474C115.666 105.054 114.299 107.049 112.66 107.731C112.371 107.851 112.065 107.95 111.754 107.989C109.2 107.16 106.826 106.239 104.611 104.686C97.475 99.6865 92.9234 90.4104 91.4564 82.0085C90.2159 74.904 90.7267 69.3649 94.9393 63.367Z"/>
	<path fill="#55E6D9" d="M102.354 75.6312C102.473 75.6369 102.591 75.6434 102.709 75.6581C104.526 75.8847 106.25 77.2963 107.336 78.6936C109.313 81.2368 110.735 85.2928 110.321 88.5138C110.056 90.5648 109.273 91.8152 107.652 93.0562C105.877 92.8335 104.341 91.7299 103.166 90.4212C100.233 87.155 99.2781 83.2133 99.5004 78.9231C100.385 77.725 101.284 76.6679 102.354 75.6312Z"/>
	<path fill="#415D98" d="M85.1408 94.7327C86.907 96.633 87.7991 99.8358 89.1736 102.078C91.2762 105.509 94.1197 108.452 96.2398 111.876C93.0888 114.845 91.0052 118.62 87.965 121.642C82.7609 118.428 77.4014 115.475 72.1713 112.306C69.648 110.778 66.9856 108.533 64.2424 107.485C65.3738 105.116 66.6247 103.154 68.4266 101.226C73.2359 96.0814 78.349 94.9809 85.1408 94.7327Z"/>
	<path fill="#55E6D9" d="M112.828 108.452C111.087 109.409 108.355 109.385 106.457 109.032C101.138 108.043 96.9576 103.533 94.0442 99.2564C88.7647 91.5075 85.7797 81.4649 87.5693 72.1173C88.1672 68.9947 89.6115 65.6788 92.3683 63.8726C93.2562 63.2908 93.905 63.1666 94.9393 63.367C90.7267 69.3649 90.2159 74.904 91.4564 82.0085C92.9234 90.4104 97.475 99.6865 104.611 104.686C106.826 106.239 109.2 107.16 111.754 107.989C112.118 108.132 112.487 108.26 112.828 108.452Z"/>
	<path fill="#415D98" d="M81.0088 137.672C81.8554 134.803 83.5675 125.984 85.8639 124.567C86.0174 124.472 86.1587 124.457 86.3331 124.434C86.8284 124.902 86.8101 125.487 86.8242 126.156C86.9275 131.074 86.4287 143.212 84.0862 147.32C83.4355 147.735 82.9433 147.646 82.2003 147.479C81.383 147.288 80.568 147.087 79.7555 146.877C80.4554 143.901 80.3785 140.689 81.0088 137.672Z"/>
	<path fill="#173467" d="M102.394 116.602C102.907 116.831 103.238 117.135 103.645 117.518C105.057 118.411 106.495 119.462 107.986 120.202L109.775 121.393C109.246 122.066 109.104 122.092 108.25 122.193C106.742 122.373 105.646 123.148 104.705 124.331C103.141 126.298 101.685 129.681 101.084 132.095L100.143 133.005C98.9582 131.678 97.643 130.193 97.0044 128.511C96.3696 126.839 96.3541 125.641 97.0734 124.017C98.5376 121.315 100.448 118.964 102.394 116.602Z"/>
	<path fill="#55E6D9" d="M97.0734 124.017L96.4961 123.491C96.4804 123.324 96.4688 123.157 96.4682 122.989C96.461 121.079 97.5692 116.361 98.9213 115.028C99.7954 114.868 100.801 115.26 101.651 115.491L102.394 116.602C100.448 118.964 98.5376 121.315 97.0734 124.017Z"/>
	<path fill="#93B7D7" d="M144.737 143.378L144.738 143.783C144.056 144.074 141.556 144.129 141.281 144.449C141.587 144.444 141.893 144.446 142.199 144.438C142.985 144.419 143.611 144.659 144.337 144.93L144.514 145.235L144.454 145.388C144.349 145.352 144.243 145.316 144.136 145.286C144.076 145.269 144.016 145.253 143.957 145.235C139.431 143.916 133.198 147.148 127.748 145.149L127.932 144.687C133.607 145.064 139.166 144.397 144.737 143.378Z"/>
	<path fill="#55E6D9" d="M101.651 115.491C102.48 115.184 103.046 114.836 103.928 114.98C104.409 115.447 104.623 115.928 104.886 116.529L103.645 117.518C103.238 117.135 102.907 116.831 102.394 116.602L101.651 115.491Z"/>
	<defs>
		<linearGradient id="gradient_4" gradientUnits="userSpaceOnUse" x1="172.02452" y1="177.33177" x2="207.32828" y2="159.37875">
			<stop offset="0" stop-color="#519AA1"/>
			<stop offset="1" stop-color="#A1BDDF"/>
		</linearGradient>
	</defs>
	<path fill="url(#gradient_4)" d="M184.465 147.494C190.279 146.503 196.459 147.488 201.33 150.96C203.603 152.58 206.112 155.243 207.206 157.83C208.49 160.081 209.362 162.449 209.688 165.034C209.987 170.569 209.861 174.332 207.067 179.216C204.474 183.874 200.323 187.746 195.135 189.224C190.574 190.524 184.279 190.037 180.092 187.701C179.922 187.607 179.756 187.505 179.595 187.397L179.768 187.188C179.271 187.061 179.028 186.8 178.664 186.45C172.204 180.237 169.675 174.4 169.509 165.467C169.459 164.162 170.091 162.353 170.544 161.119C173.268 153.683 177.55 150.684 184.465 147.494Z"/>
	<path fill="#2C7A89" d="M193.295 184.659C193.113 184.557 193.073 184.54 192.915 184.434C191.859 183.725 191.295 182.629 191.052 181.402C190.253 177.36 192.457 172.372 194.685 169.086C196.39 166.569 199.584 162.791 202.72 162.254C203.568 162.109 204.011 162.317 204.695 162.792L206.146 163.244C207.189 163.954 208.382 164.968 209.688 165.034C209.987 170.569 209.861 174.332 207.067 179.216C207.025 179.241 206.983 179.266 206.943 179.292C206.007 179.894 205.31 180.787 204.456 181.495C202.011 183.519 197.912 186.025 194.624 185.357C194.099 185.251 193.702 184.995 193.295 184.659Z"/>
	<path fill="#55E6D9" d="M204.695 162.792L206.146 163.244C207.189 163.954 208.382 164.968 209.688 165.034C209.987 170.569 209.861 174.332 207.067 179.216C207.025 179.241 206.983 179.266 206.943 179.292C206.007 179.894 205.31 180.787 204.456 181.495C202.011 183.519 197.912 186.025 194.624 185.357C194.099 185.251 193.702 184.995 193.295 184.659C197.484 183.132 200.516 180.176 202.695 176.334C205.149 172.009 206.05 167.645 204.695 162.792Z"/>
	<path fill="#93B7D7" d="M207.206 157.83C208.49 160.081 209.362 162.449 209.688 165.034C208.382 164.968 207.189 163.954 206.146 163.244C206.095 162.697 205.867 162.136 205.855 161.615C205.831 160.536 206.386 158.573 207.206 157.83Z"/>
	<defs>
		<linearGradient id="gradient_5" gradientUnits="userSpaceOnUse" x1="35.39661" y1="173.91034" x2="60.905285" y2="151.76166">
			<stop offset="0" stop-color="#5A9EA3"/>
			<stop offset="1" stop-color="#92AED5"/>
		</linearGradient>
	</defs>
	<path fill="url(#gradient_5)" d="M46.9502 145.267C50.8804 143.793 55.3319 144.388 59.1193 146.113C62.4061 147.609 62.7934 150.605 64.1666 153.583C64.2007 153.668 64.2339 153.753 64.2662 153.839C65.7846 157.909 65.2567 161.639 63.5205 165.509C60.7205 171.751 54.6344 179.67 48.0049 182.111C46.1991 182.776 44.2595 182.91 42.4857 182.076C40.4412 181.114 39.2029 179.125 38.4955 177.052C36.1822 170.272 35.9296 158.584 39.1629 152.031C40.7917 148.73 43.4764 146.416 46.9502 145.267Z"/>
	<path fill="#2C7A89" d="M46.9502 145.267C50.8804 143.793 55.3319 144.388 59.1193 146.113C62.4061 147.609 62.7934 150.605 64.1666 153.583C63.1668 153.659 62.4749 153.721 61.7581 154.511C61.6916 154.584 61.63 154.662 61.5683 154.74C61.5322 155.016 61.4608 155.265 61.2958 155.494C60.7007 156.322 59.9135 156.772 58.9143 156.927C56.1321 157.359 52.7946 155.967 50.5957 154.351C49.1307 153.274 47.1725 151.514 46.9347 149.587C46.8601 148.982 46.958 148.515 47.3217 148.026C47.5573 146.877 47.5376 146.268 46.9502 145.267Z"/>
	<path fill="#55E6D9" d="M46.9502 145.267C50.8804 143.793 55.3319 144.388 59.1193 146.113C62.4061 147.609 62.7934 150.605 64.1666 153.583C63.1668 153.659 62.4749 153.721 61.7581 154.511C61.6916 154.584 61.63 154.662 61.5683 154.74C60.8187 153.716 59.9814 152.677 59.0686 151.794C55.5598 148.396 51.9855 147.95 47.3217 148.026C47.5573 146.877 47.5376 146.268 46.9502 145.267Z"/>
	<defs>
		<linearGradient id="gradient_6" gradientUnits="userSpaceOnUse" x1="175.17961" y1="240.71045" x2="197.08476" y2="217.74275">
			<stop offset="0" stop-color="#4E979F"/>
			<stop offset="1" stop-color="#89ABD0"/>
		</linearGradient>
	</defs>
	<path fill="url(#gradient_6)" d="M185.344 210.6C189.389 209.401 193.246 209.085 197.106 211.216C199.931 212.775 202.048 215.317 203.237 218.291C203.841 220.528 204.196 222.622 204.186 224.945C203.921 227.119 203.3 228.986 202.402 230.976C199.843 236.647 193.359 244.838 187.386 247.023C184.866 247.944 182.847 247.871 180.441 246.758C179.666 245.707 178.959 244.674 178.406 243.483C175.33 236.866 175.24 225.682 177.747 218.904C179.129 215.165 181.727 212.256 185.344 210.6Z"/>
	<path fill="#2C7A89" d="M185.344 210.6C189.389 209.401 193.246 209.085 197.106 211.216C199.931 212.775 202.048 215.317 203.237 218.291C202.304 218.609 201.711 218.876 201.059 219.629L200.67 220.115C200.413 220.576 199.848 221.056 199.428 221.369C198.391 222.138 196.834 222.152 195.612 221.984C192.571 221.564 189.182 219.772 187.319 217.302C186.476 216.184 185.995 215.053 186.183 213.646C185.775 212.658 185.545 211.645 185.344 210.6Z"/>
	<path fill="#55E6D9" d="M185.344 210.6C189.389 209.401 193.246 209.085 197.106 211.216C199.931 212.775 202.048 215.317 203.237 218.291C202.304 218.609 201.711 218.876 201.059 219.629L200.67 220.115C199.388 218.604 198.52 217.176 196.889 215.916C193.545 213.332 190.196 213.144 186.183 213.646C185.775 212.658 185.545 211.645 185.344 210.6Z"/>
	<path fill="#93B7D7" d="M203.237 218.291C203.841 220.528 204.196 222.622 204.186 224.945C204.02 225.146 203.877 225.196 203.636 225.285C203.231 224.872 202.821 224.455 202.445 224.015C201.88 223.351 200.837 221.744 200.929 220.84C200.97 220.436 201.011 220.032 201.059 219.629C201.711 218.876 202.304 218.609 203.237 218.291Z"/>
	<path fill="#55E6D9" d="M52.799 133.932C54.3101 133.769 55.6786 134.832 55.8956 136.336C56.1126 137.84 55.1002 139.247 53.6048 139.518C52.5881 139.702 51.5519 139.317 50.903 138.513C50.2541 137.709 50.0963 136.614 50.4914 135.659C50.8866 134.705 51.7716 134.042 52.799 133.932Z"/>
	<path fill="#55E6D9" d="M209.583 194.995C210.718 194.895 211.938 194.869 212.834 195.698C213.271 196.103 213.51 196.624 213.508 197.221C213.504 198.706 212.665 199.49 211.676 200.473C211.247 200.524 210.801 200.585 210.369 200.57C209.738 200.548 209.001 200.16 208.592 199.672C208.081 199.059 207.864 198.323 207.981 197.532C208.137 196.479 208.758 195.63 209.583 194.995Z"/>
	<path fill="#55E6D9" fill-opacity="0.98823529" d="M197.219 191.204C197.474 191.214 197.729 191.23 197.983 191.254C198.778 191.333 199.458 191.628 199.953 192.286C200.313 192.764 200.444 193.27 200.359 193.864C200.208 194.925 199.592 195.45 198.811 196.077C198.116 196.129 197.567 196.061 196.948 195.732C196.535 195.513 196.217 195.178 196.093 194.731C195.722 193.391 196.566 192.3 197.219 191.204Z"/>
</svg>
