<?xml version="1.0" encoding="utf-8" ?>
<svg xmlns="http://www.w3.org/2000/svg" xmlns:xlink="http://www.w3.org/1999/xlink" width="360" height="360">
	<path fill="#838282" d="M168.605 8.52979Q172.813 8.25069 177.03 8.1784Q181.246 8.1061 185.461 8.24077Q189.677 8.37545 193.88 8.71677Q198.083 9.05809 202.265 9.60524Q206.447 10.1524 210.596 10.904Q214.746 11.6557 218.854 12.61Q222.962 13.5644 227.018 14.7192Q231.074 15.8739 235.068 17.2263Q239.063 18.5786 242.986 20.1254Q246.91 21.6721 250.753 23.4095Q254.595 25.1468 258.348 27.0706Q262.101 28.9944 265.755 31.1001Q269.409 33.2057 272.955 35.4881Q276.502 37.7704 279.932 40.224Q283.362 42.6777 286.667 45.2966Q289.973 47.9156 293.146 50.6935Q296.319 53.4715 299.352 56.4018Q302.385 59.3322 305.27 62.4077Q308.156 65.4833 310.887 68.6968Q313.618 71.9103 316.188 75.2538Q318.758 78.5974 321.161 82.0631Q323.564 85.5288 325.794 89.1082Q328.024 92.6876 330.076 96.3721Q332.128 100.057 333.996 103.837Q335.865 107.618 337.546 111.486Q339.226 115.354 340.715 119.299Q342.204 123.245 343.498 127.259Q344.792 131.273 345.887 135.346Q346.982 139.418 347.876 143.54Q348.77 147.661 349.46 151.821Q350.151 155.982 350.637 160.171Q351.122 164.36 351.402 168.568Q351.682 172.776 351.754 176.993Q351.827 181.209 351.693 185.424Q351.559 189.64 351.218 193.843Q350.877 198.046 350.331 202.228Q349.784 206.41 349.033 210.56Q348.282 214.71 347.328 218.817Q346.374 222.925 345.22 226.982Q344.065 231.038 342.713 235.033Q341.361 239.027 339.815 242.951Q338.269 246.875 336.532 250.717Q334.795 254.56 332.872 258.314Q330.948 262.067 328.843 265.721Q326.738 269.375 324.456 272.922Q322.174 276.468 319.721 279.899Q317.268 283.329 314.649 286.635Q312.031 289.941 309.253 293.114Q306.475 296.287 303.545 299.321Q300.615 302.354 297.54 305.24Q294.465 308.125 291.252 310.857Q288.039 313.589 284.695 316.159Q281.352 318.73 277.887 321.133Q274.421 323.536 270.842 325.767Q267.263 327.997 263.579 330.05Q259.894 332.102 256.114 333.971Q252.333 335.84 248.466 337.521Q244.598 339.202 240.652 340.692Q236.707 342.181 232.693 343.475Q228.679 344.769 224.607 345.865Q220.534 346.96 216.413 347.855Q212.292 348.749 208.132 349.44Q203.971 350.132 199.782 350.618Q195.593 351.104 191.385 351.384Q187.176 351.664 182.959 351.737Q178.742 351.811 174.526 351.677Q170.31 351.543 166.106 351.203Q161.902 350.862 157.72 350.316Q153.537 349.769 149.387 349.018Q145.237 348.267 141.128 347.314Q137.019 346.36 132.962 345.206Q128.905 344.052 124.91 342.7Q120.915 341.348 116.99 339.801Q113.066 338.255 109.223 336.518Q105.379 334.781 101.625 332.858Q97.8715 330.934 94.2167 328.829Q90.5619 326.723 87.0148 324.441Q83.4677 322.159 80.0368 319.705Q76.606 317.252 73.2997 314.633Q69.9933 312.014 66.8195 309.236Q63.6457 306.458 60.612 303.527Q57.5784 300.597 54.6921 297.521Q51.8059 294.445 49.0741 291.232Q46.3423 288.018 43.7715 284.674Q41.2007 281.33 38.797 277.864Q36.3934 274.398 34.1628 270.819Q31.9321 267.239 29.8798 263.554Q27.8275 259.869 25.9585 256.088Q24.0895 252.307 22.4083 248.438Q20.727 244.57 19.2377 240.624Q17.7483 236.678 16.4544 232.663Q15.1605 228.648 14.0651 224.575Q12.9697 220.502 12.0756 216.38Q11.1814 212.258 10.4906 208.097Q9.79976 203.936 9.31396 199.746Q8.82815 195.557 8.54853 191.348Q8.2689 187.139 8.19613 182.922Q8.12337 178.705 8.25763 174.489Q8.3919 170.273 8.73287 166.069Q9.07384 161.865 9.62071 157.683Q10.1676 153.501 10.919 149.35Q11.6704 145.2 12.6246 141.091Q13.5788 136.983 14.7335 132.926Q15.8881 128.869 17.2405 124.874Q18.5928 120.879 20.1396 116.955Q21.6863 113.031 23.4238 109.187Q25.1612 105.344 27.0852 101.59Q29.0091 97.837 31.1149 94.1824Q33.2208 90.5278 35.5034 86.9809Q37.786 83.4341 40.2399 80.0035Q42.6939 76.573 45.3132 73.267Q47.9325 69.9609 50.7109 66.7874Q53.4892 63.6139 56.42 60.5806Q59.3508 57.5473 62.4268 54.6614Q65.5029 51.7755 68.7169 49.0441Q71.9309 46.3126 75.2751 43.7422Q78.6192 41.1718 82.0855 38.7685Q85.5517 36.3653 89.1317 34.135Q92.7118 31.9048 96.3969 29.8529Q100.082 27.801 103.863 25.9324Q107.645 24.0639 111.513 22.3831Q115.382 20.7023 119.328 19.2134Q123.275 17.7245 127.289 16.431Q131.304 15.1375 135.377 14.0426Q139.45 12.9477 143.573 12.054Q147.695 11.1603 151.856 10.47Q156.017 9.77961 160.207 9.29427Q164.396 8.80894 168.605 8.52979Z"/>
	<path fill="#FEFEFE" d="M111.852 113.353Q115.361 113.242 118.867 113.428C133.39 114.212 145.427 120.11 155.109 130.944C167.682 145.012 173.038 166.719 172.007 185.225L106.687 185.198L87.7114 185.203C83.9963 185.205 80.1819 185.399 76.4853 185.052C76.4261 190.294 76.7997 195.564 78.0506 200.67C80.2889 209.806 85.8563 217.737 93.9342 222.623C103.623 228.484 116.668 229.782 127.567 227.022C135.418 225.033 143.537 219.391 147.103 211.97C147.821 210.475 148.735 206.234 149.195 205.529C149.237 205.464 149.282 205.402 149.326 205.339C156.262 205.142 163.249 205.308 170.192 205.323C167.964 213.904 165.348 221.813 159.343 228.55C149.165 239.968 135.506 245.614 120.387 246.486C104.102 247.424 87.5375 244.135 75.0854 232.975C60.9995 220.351 55.3775 201.803 54.4006 183.369C53.4139 164.751 58.698 145.768 71.3759 131.769C81.9212 120.126 96.3254 114.1 111.852 113.353Z"/>
	<path fill="#838282" d="M109.579 132.101C119.057 131.331 127.915 133.574 135.482 139.466C144.606 146.57 148.412 156.579 149.829 167.735C138.707 167.928 127.562 167.785 116.438 167.787L90.8924 167.774C86.1154 167.773 81.1533 167.497 76.4034 167.966C77.5315 159.283 79.6608 151.299 85.3736 144.43C91.656 136.875 99.8687 133.001 109.579 132.101Z"/>
	<path fill="#FEFEFE" d="M273.693 113.508C282.5 113.515 291.323 113.623 300.127 113.427C291.857 125.409 282.509 137.085 273.758 148.76L261.593 165.002C259.151 168.26 256.793 171.671 254.118 174.74C261.001 183.61 267.356 193.012 273.886 202.149L305.864 246.777Q299.495 246.629 293.125 246.673L277.452 246.654C274.962 242.308 271.943 238.161 269.149 234L250.496 206.362C247.179 201.446 243.575 196.563 240.593 191.44Q232.348 203.956 223.942 216.365Q213.821 231.519 203.531 246.56C194.763 247.197 185.813 246.496 177.006 246.797C183.325 236.985 190.52 227.602 197.3 218.096C207.168 204.259 216.874 190.273 226.968 176.601C224.276 173.267 221.85 169.725 219.321 166.268L207.903 150.697L180.42 113.444C189.84 113.808 199.344 113.451 208.778 113.527C211.492 117.884 214.57 122.1 217.475 126.336C225.187 137.581 233.188 148.727 240.596 160.171C244.131 154.701 248.153 149.468 251.922 144.151L273.693 113.508Z"/>
</svg>
