<?xml version="1.0" encoding="utf-8" ?>
<svg xmlns="http://www.w3.org/2000/svg" xmlns:xlink="http://www.w3.org/1999/xlink" width="304" height="350">
	<path fill="#8FBF62" transform="scale(0.38 0.378788)" d="M399.939 2.19577C410.908 8.08285 421.682 14.6306 432.471 20.8558L502.433 61.3379L794.907 230.183C796.598 230.807 798.217 231.431 800 231.744L800 691.978L795.018 693.631C783.309 698.934 772.073 706.012 760.972 712.504L716.463 738.326L558.905 829.448Q500.867 862.459 443.297 896.284Q429.73 904.109 416.051 911.736C411.211 914.401 405.005 916.899 400.741 920.357C400.541 921.15 400.425 921.577 399.972 922.275C394.18 917.206 387.774 914.169 381.113 910.434L357.197 896.985C335.145 884.491 313.313 871.489 291.374 858.785L128.859 765.108Q66.0581 728.073 2.67405 692.044C3.05035 680.654 2.79923 669.306 2.83856 657.915Q3.16024 628.062 3.05792 598.207L3.09195 395.056L3.057 286.574L2.9552 254.618C2.88198 247.868 3.20789 240.54 1.83568 233.928L1.96311 232.64C2.7695 231.387 3.88235 230.613 5.13809 229.846C11.212 226.135 17.6744 222.75 23.8488 219.16L93.4779 179.158L399.939 2.19577Z"/>
	<path fill="#B4D595" transform="scale(0.38 0.378788)" d="M794.907 230.183C796.598 230.807 798.217 231.431 800 231.744L800 691.978L795.018 693.631C795.985 680.948 795.425 667.895 795.429 655.171L795.461 588.458L795.478 382.874L795.46 281.505L795.543 249.468C795.549 243.273 796.204 236.228 794.907 230.183Z"/>
	<path fill="#FEFDFF" transform="scale(0.38 0.378788)" d="M395.288 437.265C399.158 436.808 402.771 437.311 406.431 438.611C413.678 441.186 420.456 445.714 427.071 449.584Q439.527 456.921 452.083 464.084L504.152 494.102C513.773 499.685 524.195 505.007 533.173 511.551C536.967 514.316 540.216 517.775 542.23 522.04C543.291 524.287 543.888 526.488 544.073 528.958C544.863 539.537 544.607 550.303 544.588 560.907L544.386 608.181L544.342 652.182C544.302 659.094 544.502 666.13 544.032 673.023C543.809 676.303 543.228 679.516 542.071 682.602C540.718 686.207 538.817 688.916 535.745 691.288C528.561 696.835 519.883 701.077 512.014 705.628Q490.263 718.43 468.277 730.823C454.175 738.917 440.285 747.361 426.117 755.346C420.083 758.748 414.003 762.517 407.665 765.324C401.544 768.035 396.51 768.598 390.192 766.115C384.674 763.947 342.886 740.12 341.408 736.693L342.052 736.426L341.932 735.893L342.383 736.201C345.653 734.665 349.111 733.493 352.408 731.996C356.151 730.296 359.708 728.204 363.332 726.266C368.142 728.026 372.712 731.222 377.091 733.859Q387.827 740.309 398.453 746.94C410.604 739.054 423.488 732.129 436.043 724.911L494.395 691.184C503.522 685.902 513.119 680.961 521.941 675.198C522.511 663.983 522.156 652.566 522.249 641.328C522.554 604.502 521.659 567.588 522.741 530.781C517.968 526.639 511.984 523.623 506.518 520.483L486.393 508.895Q445.175 485.351 404.347 461.138L398.989 457.996C391.754 460.911 384.801 465.66 378.024 469.542L335.134 494.351L292.314 519.073C286.246 522.613 278.579 526.064 273.42 530.732L273.571 629.178L273.633 655.957C273.625 661.985 273.352 668.13 273.885 674.138C279.978 679.117 312.076 697.007 318.928 698.252C323.189 699.026 327.513 697.859 331.02 695.397C334.449 692.99 336.127 690.163 337 686.1C338.75 677.959 337.635 664.729 337.6 655.98L337.515 579.072C337.513 569.302 336.503 551.052 338.209 542.275C338.238 542.124 338.271 541.974 338.303 541.824C343.719 540.988 352.544 539.827 357.77 541.713C358.552 541.995 359.158 542.205 359.417 543.062C360.337 546.111 359.669 574.142 359.685 580.166L359.88 654.908C359.819 666.01 360.355 677.527 359.439 688.575C358.988 694.022 357.752 699.133 355.094 703.944C350.815 711.691 344.216 716.292 335.779 718.628C317.596 723.663 302.554 716.176 287.077 707.288Q280.045 703.241 273.056 699.119C263.919 693.727 255.395 688.78 252.557 677.794C250.206 668.696 251.392 655.874 251.38 646.37L251.34 598.436L251.334 556.653C251.344 548.389 250.937 539.825 251.833 531.613C252.331 527.054 253.733 522.571 256.182 518.671C258.29 515.315 262.784 512.136 266.036 509.948C283.401 498.264 303.524 487.941 321.746 477.403L357.335 456.677C368.436 450.171 382.894 440.372 395.288 437.265Z"/>
	<path fill="#363437" transform="scale(0.38 0.378788)" d="M504.215 217.88C504.969 217.849 505.725 217.83 506.479 217.89C510.5 218.208 540.259 234.695 542.993 238.017C544.094 239.354 544.078 242.362 544.147 244.065C544.577 254.618 544.227 265.308 544.214 275.88L544.176 335.052L544.294 374.306C544.34 383.04 544.702 392.038 543.922 400.74C538.664 405.294 491.035 432.773 484.174 435.54C477.369 432.827 470.859 428.624 464.514 424.962L439.946 410.589C434.737 407.558 428.897 404.677 424.255 400.834C423.825 392.785 424.12 384.578 424.091 376.511Q423.961 353.821 424.079 331.131C431.038 325.492 440.314 321.153 448.129 316.605C459.051 310.249 472.626 301.154 483.995 296.58C490.854 299.071 497.161 303.444 503.427 307.148C504.037 286.836 503.478 266.354 503.492 246.026C503.498 236.859 502.824 226.947 504.215 217.88Z"/>
	<path fill="#8FBF62" transform="scale(0.38 0.378788)" d="M483.2 343.703C487.435 344.222 499.337 352.283 503.052 355.109C504.116 362.162 503.658 370.069 503.354 377.197Q493.924 382.921 484.412 388.509C479.881 387.83 469.066 380.152 464.793 377.278C464.136 369.929 464.606 362.335 464.723 354.958C470.457 350.742 477.149 347.514 483.2 343.703Z"/>
	<path fill="#FEFDFF" transform="scale(0.38 0.378788)" d="M341.52 293.166C342.658 293.351 402.724 325.885 406.06 328.317C406.394 336.282 405.848 344.523 405.69 352.513Q405.221 376.145 404.288 399.763C384.326 411.462 364.867 424.013 344.946 435.791C344.619 435.95 344.486 436.036 344.101 436.117C342.975 436.353 341.877 435.709 340.913 435.2C332.704 430.86 324.758 425.516 316.759 420.75C304.985 413.737 293.01 407.039 281.348 399.847C280.946 390.452 281.37 380.891 281.388 371.476C281.416 357.185 281.208 342.856 281.559 328.571C287.408 323.903 294.704 320.304 301.176 316.497Q321.259 304.676 341.52 293.166Z"/>
	<path fill="#8FBF62" transform="scale(0.38 0.378788)" d="M341.923 306.269C345.129 306.737 391.243 332.543 394.462 335.265L393.638 370.067C393.487 378.015 393.85 386.505 392.411 394.332C376.21 403.809 360.368 413.994 344.023 423.202C343.303 423.234 342.651 423.132 341.993 422.826C336.081 420.069 327.834 414.26 321.887 410.743C313.487 405.775 299.658 398.829 292.395 393.135C292.3 373.841 292.752 354.538 292.544 335.227C299.082 329.807 307.764 325.794 315.139 321.469C323.77 316.408 332.735 310.151 341.923 306.269Z"/>
	<path fill="#363437" transform="scale(0.38 0.378788)" d="M200.684 294.537C200.838 294.554 200.994 294.561 201.147 294.586C205.708 295.358 258.76 325.617 261.806 329.415C263.484 335.328 263.242 414.568 261.552 419.846L260.684 420.173C256.513 419.533 227.495 402.744 224.104 399.767C222.802 398.624 222.497 397.862 222.209 396.173C221.505 392.04 221.922 387.334 221.931 383.129C221.953 373.059 222.27 362.908 221.846 352.849C216.55 348.11 209.09 344.415 202.75 341.23C198.488 340.723 185.718 349.945 181.791 352.597C180.822 361.155 183.126 393.733 180.124 398.621C177.919 402.211 147.05 418.664 141.814 420.149C140.346 403.156 141.206 385.5 141.197 368.429C141.189 356.088 140.193 340.606 141.823 328.571C148.829 323.492 156.927 319.3 164.399 314.93C176.327 307.956 188.313 300.697 200.684 294.537Z"/>
	<path fill="#363437" transform="scale(0.38 0.378788)" d="M617.578 295.469C619.189 295.636 620.851 296.445 622.283 297.173C628.507 300.34 674.132 326.503 675.951 328.954C677.933 331.626 677.774 345.431 676.939 348.902C676.616 350.245 676.185 350.764 675.152 351.629C671.582 354.619 666.661 356.852 662.595 359.205Q650.942 365.951 639.375 372.845C638.273 366.218 638.504 359.169 638.413 352.457C632.414 347.286 624.929 343.204 617.823 339.757C610.622 342.438 603.35 346.926 597.066 351.339C596.436 358.976 595.986 367.472 597.106 375.062C601.659 378.647 607.103 381.384 612.138 384.249Q623.235 390.477 634.184 396.96C638.136 399.344 651.182 405.526 653.31 409.041C653.762 409.789 653.538 409.86 653.325 410.643C647.258 415.985 625.844 427.354 617.887 430.849C609.128 427.436 563.177 401.267 558.244 396.059C557.61 389.326 557.075 333.937 558.847 329.841C560.403 326.243 610.466 298.847 617.578 295.469Z"/>
	<path fill="#FEFDFF" transform="scale(0.38 0.378788)" d="M425.778 537.545Q434.488 537.275 443.188 537.779C456.835 538.621 471.923 542.831 481.209 553.516Q481.846 554.246 482.445 555.007Q483.045 555.768 483.607 556.558Q484.168 557.347 484.69 558.163Q485.212 558.979 485.693 559.82Q486.174 560.661 486.613 561.525Q487.052 562.389 487.448 563.273Q487.843 564.157 488.195 565.06Q488.547 565.963 488.853 566.882Q489.16 567.801 489.421 568.734Q489.682 569.667 489.897 570.611Q490.111 571.556 490.279 572.51Q490.447 573.464 490.568 574.425Q490.688 575.387 490.761 576.353Q490.834 577.319 490.859 578.287Q490.884 579.256 490.862 580.224Q490.839 581.193 490.769 582.159C485.686 583.154 480.141 583.298 474.967 583.15C473.51 583.108 470.738 583.133 469.711 581.953C467.142 579.002 467.255 572.134 462.181 566.867C455.403 559.83 443.545 558.374 434.298 558.248C424.845 558.119 410.506 558.408 403.498 565.659C400.781 568.47 399.398 572.445 399.605 576.323C399.807 580.108 401.832 582.444 405.048 584.259C411.756 588.044 420.762 588.861 428.305 589.879C445.327 592.175 474.67 594.604 487.287 606.646C493.209 612.297 495.621 620.084 495.753 628.116C495.921 638.347 492.688 648.423 485.443 655.804C472.563 668.924 451.981 671.166 434.544 671.309C430.785 671.256 426.993 670.978 423.244 670.707C407.849 669.595 391.046 665.288 380.597 653.093C373.617 644.947 370.843 634.438 371.643 623.851C376.931 623.117 383.217 622.783 388.557 622.975C389.407 623.006 392.222 623.151 392.732 623.705C394.927 626.086 395.197 636.202 400.461 641.463C409.095 650.092 428.285 650.478 439.739 650.245C448.692 650.063 461.696 649.067 468.172 642.002C470.983 638.935 472.711 634.189 472.389 630.002C471.256 615.276 433.789 613.898 422.887 612.655Q415.339 611.768 407.934 610.056C399.87 608.165 391.363 604.994 385.102 599.395C379.163 594.084 376.15 586.671 375.781 578.791C375.334 569.217 378.812 559.299 385.285 552.2C395.483 541.016 411.36 538.179 425.778 537.545Z"/>
	<path fill="#B4D595" transform="scale(0.38 0.378788)" d="M648.397 505.827C654.574 506.028 669.788 514.939 674.573 519.172C675.868 527.406 675.038 536.686 675.078 545.058C670.046 552.753 658.785 559.022 650.31 561.877C647.332 561.106 629.284 549.718 627.327 547.603C622.192 542.058 624.031 527.925 624.134 520.574C631.801 515.443 640.065 509.777 648.397 505.827Z"/>
	<path fill="#FEFDFF" transform="scale(0.38 0.378788)" d="M614.871 351.877C616.303 351.703 617.25 351.809 618.602 352.267C622.41 353.557 625.602 355.167 627.354 359.024Q627.587 359.55 627.766 360.097Q627.945 360.644 628.068 361.206Q628.191 361.768 628.258 362.339Q628.324 362.911 628.333 363.486Q628.341 364.061 628.292 364.634Q628.243 365.207 628.137 365.773Q628.031 366.338 627.868 366.89Q627.706 367.442 627.489 367.975C625.703 372.31 621.997 374.232 617.953 375.989C617.067 376.146 616.416 376.244 615.533 375.99C611.558 374.847 607.63 372.735 605.665 368.943Q605.409 368.454 605.205 367.941Q605.001 367.429 604.851 366.898Q604.7 366.367 604.606 365.823Q604.511 365.279 604.472 364.729Q604.434 364.178 604.452 363.627Q604.47 363.075 604.545 362.529Q604.62 361.982 604.751 361.446Q604.882 360.91 605.067 360.39C606.686 355.857 610.894 353.897 614.871 351.877Z"/>
	<path fill="#B4D595" transform="scale(0.38 0.378788)" d="M758.493 317.358C764.016 308.837 772.811 305.416 779.765 298.693L779.647 298.314C769.798 299.695 740.709 316.794 730.945 322.227C728.029 323.85 724.766 325.107 722.021 326.952C721.608 327.229 721.183 327.493 720.765 327.764C721.614 328.164 722.403 327.752 723.267 327.439C729.135 325.311 734.757 321.705 740.424 319.052C742.594 318.035 745.292 317.482 747.312 316.411C749.404 315.303 752.195 312.283 754.728 312.823L754.859 313.389L754.483 312.691L753.82 312.664L754.311 314.176C753.345 314.786 752.806 314.98 751.674 315.146C749.21 315.508 747.524 317.29 745.289 318.211C742.715 319.271 740.016 320.053 737.478 321.2C729.759 324.687 721.796 329.154 714.483 333.445C709.393 336.432 695.15 346.288 690.216 347.785C691.04 346.241 712.683 333.357 715.267 332.355C716.428 331.905 716.89 331.593 717.617 330.585L717.289 329.926C714.026 329.348 689.715 344.757 684.068 347.373C689.117 345.161 693.655 341.066 698.519 338.327C709.458 332.168 720.779 326.634 731.884 320.776C739.799 316.6 773.796 296.711 781.025 297.209L781.265 297.805C778.724 301.984 770.729 306.139 766.761 309.504C763.892 311.938 761.36 314.735 758.931 317.6C754.248 323.214 748.702 327.641 743.677 332.883C734.387 342.574 725.312 352.49 716.128 362.284C712.457 366.197 708.095 372.125 703.613 374.969C705.969 369.985 719.904 359.979 720.378 355.58C714.43 361.653 708.544 367.716 702.744 373.897L702.189 373.733C702.657 371.691 715.635 359.43 717.899 357.129C728.278 346.58 737.513 335.11 748.007 324.672C750.2 322.491 752.074 319.939 754.535 318.057L754.883 318.365C751.446 323.266 745.995 327.537 741.775 331.836C739.271 334.385 737.225 337.187 734.92 339.894C732.379 342.878 729.607 345.606 727.169 348.688C730.737 347.284 740.128 335.417 743.442 332.076C748.412 327.066 753.629 322.499 758.493 317.358Z"/>
	<path fill="#B4D595" transform="scale(0.38 0.378788)" d="M221.387 706.961C212.508 694.019 204.03 680.723 195.042 667.878C190.153 660.891 184.604 654.53 179.921 647.377L180.4 647.142L179.818 647.771L180.765 647.401C183.999 650.497 194.077 664.199 196.129 668.208C197.4 670.692 199.167 673.274 201.1 675.29C200.686 671.649 186.626 655.135 185.549 649.656L185.953 649.637C189.231 652.888 193.047 660.955 195.842 665.263C204.457 678.541 213.456 691.55 222.078 704.818C225.151 708.793 237.088 726.922 236.798 730.537C235.877 728.777 235.453 727.183 233.739 726.066C234.156 726.956 234.718 727.639 235.311 728.414L235.25 728.348L235.485 729.296C232.69 726.588 231.514 723.374 229.61 720.1C227.03 715.664 224.286 711.191 221.387 706.961Z"/>
	<defs>
		<linearGradient id="gradient_0" gradientUnits="userSpaceOnUse" x1="0.43150821" y1="494.02686" x2="2.8747647" y2="494.04037">
			<stop offset="0" stop-color="#F0F9E9" stop-opacity="0.94901961"/>
			<stop offset="1" stop-color="#EFF9E7"/>
		</linearGradient>
	</defs>
	<path fill="url(#gradient_0)" transform="scale(0.38 0.378788)" d="M1.83568 233.928C3.20789 240.54 2.88198 247.868 2.9552 254.618L3.057 286.574L3.09195 395.056L3.05792 598.207Q3.16028 628.062 2.83856 657.915C2.79923 669.306 3.05035 680.654 2.67405 692.044L0 690.25L0 572.803C0.814013 569.91 0.503542 566.535 0.492322 563.537C0.778252 554.256 0.475288 544.877 0.508303 535.583C0.497177 529.24 0.591488 522.875 0.392418 516.535C0.753262 512.163 0.547182 507.688 0.461185 503.305C1.34328 484.221 1.01869 464.618 0.78509 445.505L0.785055 413.002C1.32657 398.047 1.02411 382.816 0.794809 367.844C0.999183 349.859 1.41952 331.732 0.918597 313.755C1.43588 305.567 1.11079 297.113 1.1841 288.896C1.31001 274.783 1.59204 260.624 1.335 246.514C1.75937 242.414 1.61929 238.067 1.83568 233.928Z"/>
	<path fill="#FEFDFF" fill-opacity="0.15294118" transform="scale(0.38 0.378788)" d="M0 235.04C0.97595 237.904 0.331462 258.473 0.699765 263.966C0.718628 259.282 -0.143419 250.67 1.335 246.514C1.59204 260.624 1.31001 274.783 1.1841 288.896C1.11079 297.113 1.43588 305.567 0.918597 313.755C-0.792611 318.088 1.53147 327.359 0 330.571L0 235.04Z"/>
	<path fill="#FEFDFF" fill-opacity="0.33725491" transform="scale(0.38 0.378788)" d="M0 330.571C1.53147 327.359 -0.792611 318.088 0.918597 313.755C1.41952 331.732 0.999183 349.859 0.794809 367.844C-0.851467 370.217 0.781005 378.325 0 381.691L0 330.571Z"/>
	<path fill="#FEFDFF" fill-opacity="0.37254903" transform="scale(0.38 0.378788)" d="M0 381.691C0.781005 378.325 -0.851467 370.217 0.794809 367.844C1.02411 382.816 1.32657 398.047 0.785055 413.002C-0.384526 416.834 0.885501 420.921 0 424.799L0 381.691Z"/>
	<path fill="#FEFDFF" fill-opacity="0.41176471" transform="scale(0.38 0.378788)" d="M0 424.799C0.885501 420.921 -0.384526 416.834 0.785055 413.002L0.78509 445.505C-0.871105 452.886 1.69917 479.222 0 483.05L0 424.799Z"/>
	<path fill="#FEFDFF" fill-opacity="0.54901963" transform="scale(0.38 0.378788)" d="M0 483.05C1.69917 479.222 -0.871105 452.886 0.78509 445.505C1.01869 464.618 1.34328 484.221 0.461185 503.305L0 503.434L0 483.05Z"/>
	<path fill="#FEFDFF" fill-opacity="0.72549021" transform="scale(0.38 0.378788)" d="M0 535.749L0.508303 535.583C0.475288 544.877 0.778252 554.256 0.492322 563.537L0 563.686L0 535.749Z"/>
	<path fill="#FEFDFF" fill-opacity="0.70980394" transform="scale(0.38 0.378788)" d="M0 516.383L0.392418 516.535C0.591488 522.875 0.497177 529.24 0.508303 535.583L0 535.749L0 516.383Z"/>
	<path fill="#FEFDFF" fill-opacity="0.65882355" transform="scale(0.38 0.378788)" d="M0 503.434L0.461185 503.305C0.547182 507.688 0.753262 512.163 0.392418 516.535L0 516.383L0 503.434Z"/>
	<path fill="#FEFDFF" fill-opacity="0.73333335" transform="scale(0.38 0.378788)" d="M0 563.686L0.492322 563.537C0.503542 566.535 0.814013 569.91 0 572.803L0 563.686Z"/>
</svg>
