<?xml version="1.0" encoding="utf-8" ?>
<svg xmlns="http://www.w3.org/2000/svg" xmlns:xlink="http://www.w3.org/1999/xlink" width="350" height="269">
	<path fill="#FE6700" transform="scale(0.788288 0.791176)" d="M22.8981 26.8237C27.0566 26.5279 31.4479 26.9132 35.6356 26.9253L63.8056 26.9452L153.909 26.9377C158.805 26.9358 192.52 26.4622 193.975 27.1743C195.925 28.129 204.136 36.9769 206.428 39.2629L236.65 69.4102L266.838 99.5577C269.282 102.002 277.106 110.445 279.515 111.777C281.077 110.989 282.816 108.596 284.144 107.31C289.301 102.316 294.535 97.2742 299.492 92.0884C303.821 87.5602 309.172 81.4401 313.899 77.5491L314.148 77.3465C316.922 79.3971 319.32 82.1121 321.753 84.5536L333.043 95.8442C344.538 107.323 356.337 118.604 367.589 130.311C368.278 131.027 369.167 131.822 369.473 132.775C369.655 132.977 369.798 133.137 369.89 133.398C370.514 135.174 370.06 162.858 370.06 166.63L370.051 220.503C370.046 230 370.244 239.555 369.986 249.047C369.965 249.813 369.942 250.408 369.549 251.089C366.802 250.714 363.786 250.822 361.007 250.808L347.41 250.797Q338.852 250.787 330.294 250.878C327.172 250.916 323.911 250.76 320.826 251.254L320.747 153.752C317.195 151.41 308.84 142.262 305.398 138.852L288.654 122.245C285.561 119.166 281.926 116.121 279.461 112.525C274.543 118.47 267.721 125.152 261.688 129.952C262.687 130.428 263.538 131.029 264.363 131.766C271.511 138.153 278.435 145.7 285.232 152.529C287.968 155.279 293.933 160.29 295.737 163.349C296.221 170.377 295.612 177.49 295.505 184.525C295.348 194.95 295.469 205.399 295.485 215.826C295.494 221.631 295.176 227.761 295.949 233.509C290.518 229.239 284.282 222.063 279.179 217.042L244.594 182.589L233.735 171.757C231.482 169.473 229.388 167.051 227.046 164.853C222.243 170.239 215.296 177.901 209.485 181.989C213.73 184.448 217.278 188.914 220.749 192.388L238.089 209.892L263.655 235.474C269.07 240.842 274.655 246.011 279.805 251.643C275.895 251.731 271.957 251.537 268.044 251.521L240.295 251.468L222.062 251.497C217.804 251.505 213.501 251.632 209.257 251.254C204.708 247.264 200.529 242.828 196.21 238.595C188.995 231.525 181.633 224.44 174.968 216.847C170.375 222.07 165.22 226.748 160.426 231.777C159.514 232.714 158.541 233.566 157.553 234.422C160.993 236.285 172.381 248.422 175.895 251.969L198.412 274.498C201.69 274.847 205.193 274.574 208.505 274.566L227.959 274.561L320.617 274.563L349.764 274.553C355.172 274.543 360.622 274.374 366.024 274.552C367.19 274.59 368.892 274.563 369.948 275.112C372.261 276.314 382.791 287.626 385.269 290.108Q400.367 305.439 415.879 320.35C416.802 321.236 418.01 322.244 418.033 323.592L417.592 323.961C415.858 324.37 413.789 323.955 412.007 323.945L399.506 323.961L340.276 323.962L229.786 323.965L195.493 323.963C189.474 323.962 183.159 324.361 177.177 323.761C175.831 322.484 174.712 320.955 173.38 319.651L145.188 291.597L130.59 277.06C127.685 274.196 124.624 271.477 121.905 268.432C123.23 267.179 124.781 266.164 126.108 264.894C128.214 262.878 130.17 260.689 132.231 258.624L145.613 245.353C149.293 241.679 152.939 237.387 156.84 234.002C154.205 231.619 151.883 228.761 149.368 226.236L130.221 207.106L75.0031 152.117C74.0076 151.121 72.319 149.455 71.9935 148.044C71.2668 144.893 71.7473 137.787 71.748 134.189L71.8005 101.047C74.878 101.451 78.2157 101.224 81.3242 101.228L98.1359 101.239L112.697 101.241C115.42 101.239 118.378 101.496 121.047 100.996C120.979 109.972 120.671 119.142 121.106 128.1C123.364 131.401 127.11 134.469 129.947 137.308L148.898 156.188C151.589 158.864 155.096 161.708 156.934 165.041C160.511 160.566 164.789 156.865 168.786 152.789C179.151 142.216 189.816 131.933 200.169 121.348C203.042 118.411 206.442 115.73 209.038 112.57C205.668 108.118 199.416 102.736 195.247 98.6017C188.045 91.4618 181.057 84.0704 173.712 77.0795C150.234 77.3496 126.737 77.1667 103.257 77.1629L84.3321 77.2094C80.4359 77.2302 76.2572 77.5619 72.4119 76.9413C67.8106 72.7384 63.4946 68.1697 59.0903 63.7598L35.9387 40.5859L27.3492 32.0024C25.8824 30.564 23.8388 29.0723 22.733 27.3552L22.8981 26.8237Z"/>
	<path fill="#FFFFFE" fill-opacity="0.015686275" transform="scale(0.788288 0.791176)" d="M392.622 324.375C395.462 324.102 414.997 323.942 417.124 324.375C415.583 324.892 395.617 324.53 392.622 324.375Z"/>
</svg>
